<?xml version="1.0"?>

<svg version="1.0" xmlns="http://www.w3.org/2000/svg" viewBox="0 0 720.000000 720.000000" preserveAspectRatio="xMidYMid meet">
<metadata>
Created by potrace 1.16, written by Peter Selinger 2001-2019
</metadata>
<g transform="translate(0.000000,720.000000) scale(0.100000,-0.100000)" fill="currentColor" stroke="none">
<path d="M3465 6764 c-315 -22 -478 -39 -595 -64 -165 -35 -289 -62 -315 -71&#xA;-16 -5 -68 -21 -115 -35 -809 -247 -1456 -717 -1904 -1385 -65 -97 -77 -124&#xA;-63 -146 6 -9 1 -13 -17 -13 -19 0 -26 -5 -26 -19 0 -10 -7 -24 -15 -31 -8 -7&#xA;-15 -16 -15 -21 0 -4 -16 -34 -35 -66 -19 -32 -35 -64 -35 -71 0 -7 -14 -40&#xA;-30 -74 -17 -33 -30 -71 -30 -84 0 -13 -4 -24 -8 -24 -10 0 -52 -120 -52 -149&#xA;0 -12 -9 -42 -20 -65 -51 -113 -98 -397 -105 -636 -2 -69 -5 -136 -6 -150 -4&#xA;-39 13 -230 20 -230 3 0 6 -44 7 -98 0 -100 29 -248 79 -417 13 -44 27 -91 31&#xA;-105 4 -14 22 -63 42 -110 19 -47 44 -112 57 -145 161 -432 614 -990 1065&#xA;-1314 470 -337 932 -538 1520 -660 68 -15 292 -46 427 -61 193 -21 649 -14&#xA;695 11 11 6 32 7 48 4 44 -10 138 13 150 36 6 10 22 27 37 36 25 16 26 16 47&#xA;-8 27 -31 98 -31 206 0 36 11 81 22 100 26 91 17 329 89 415 125 11 4 69 27&#xA;129 50 173 66 464 219 626 329 268 181 486 362 638 527 113 124 122 134 122&#xA;149 0 7 9 16 20 20 23 7 64 70 55 85 -3 5 0 10 9 10 16 0 132 149 152 196 7&#xA;17 20 36 28 44 9 7 16 18 16 26 0 7 6 17 13 21 7 4 31 44 51 88 21 44 51 105&#xA;66 135 75 149 178 444 215 615 9 44 21 96 26 116 13 53 12 349 -2 349 -7 0 -8&#xA;-14 -4 -42 6 -39 5 -42 -9 -28 -27 26 -33 100 -9 106 15 4 19 11 15 26 -3 14&#xA;-1 19 6 14 17 -10 16 370 -2 490 -54 353 -220 765 -450 1109 -72 109 -77 116&#xA;-130 185 -538 698 -1432 1203 -2380 1346 -231 34 -608 58 -761 48z m475 -115&#xA;c80 -6 181 -17 225 -25 44 -8 136 -23 205 -33 69 -11 152 -28 185 -39 33 -11&#xA;103 -32 155 -47 179 -49 205 -57 270 -82 36 -14 81 -34 100 -44 53 -27 151&#xA;-69 164 -69 13 0 134 -65 216 -115 59 -37 154 -85 167 -85 4 0 38 -24 75 -53&#xA;97 -76 149 -112 186 -131 17 -9 32 -21 32 -26 0 -5 16 -14 35 -21 19 -7 35&#xA;-16 35 -19 0 -9 51 -60 141 -140 46 -41 107 -100 134 -130 28 -30 68 -73 90&#xA;-95 36 -35 131 -155 175 -219 8 -12 36 -49 61 -81 42 -55 133 -207 215 -360&#xA;37 -70 131 -305 167 -420 78 -246 107 -421 114 -677 5 -185 7 -198 24 -198 11&#xA;0 19 -4 19 -9 0 -17 -24 -76 -33 -83 -6 -3 -16 -62 -24 -130 -84 -742 -516&#xA;-1453 -1187 -1953 -83 -62 -164 -120 -181 -129 -16 -9 -37 -21 -45 -26 -579&#xA;-372 -1261 -565 -2000 -564 -572 0 -1087 110 -1565 334 -44 20 -102 48 -130&#xA;61 -27 12 -70 35 -95 50 -25 14 -97 57 -160 94 -306 181 -724 549 -898 791&#xA;-185 256 -259 385 -384 664 -115 254 -198 627 -214 955 -16 324 71 816 191&#xA;1080 8 17 32 71 53 121 46 108 126 255 179 331 13 17 23 38 23 47 0 8 6 19 14&#xA;23 7 4 24 26 38 48 194 308 676 741 1048 941 25 14 61 34 80 45 59 35 102 56&#xA;190 94 47 20 98 43 113 51 15 9 58 26 95 38 37 13 108 37 157 54 50 17 124 39&#xA;165 50 41 11 109 29 150 40 74 20 288 59 445 81 198 28 490 31 785 10z m3248&#xA;-2851 c-2 -6 -10 -14 -16 -16 -7 -2 -10 2 -6 12 7 18 28 22 22 4z m-48 -218&#xA;c0 -11 -4 -20 -10 -20 -5 0 -10 9 -10 20 0 11 5 20 10 20 6 0 10 -9 10 -20z&#xA;m-200 -1140 c0 -5 -4 -10 -10 -10 -5 0 -10 5 -10 10 0 6 5 10 10 10 6 0 10 -4&#xA;10 -10z m-240 -340 c0 -5 -2 -10 -4 -10 -3 0 -8 5 -11 10 -3 6 -1 10 4 10 6 0&#xA;11 -4 11 -10z"></path>
<path d="M3384 6559 c-1352 -78 -2499 -868 -2909 -2004 -306 -846 -137 -1804&#xA;448 -2537 639 -802 1642 -1268 2732 -1272 820 -2 1625 271 2241 760 539 427&#xA;895 987 1037 1629 94 424 52 965 -108 1385 -444 1163 -1598 1945 -3013 2040&#xA;-169 11 -220 11 -428 -1z m631 -54 c77 -8 156 -19 175 -25 19 -5 51 -10 70&#xA;-10 19 0 71 -10 115 -21 44 -11 107 -26 140 -33 86 -18 238 -64 320 -96 39&#xA;-15 95 -35 125 -45 30 -9 82 -30 115 -45 33 -16 104 -49 157 -73 424 -197 873&#xA;-562 1161 -946 86 -114 177 -249 177 -262 0 -6 16 -34 35 -64 198 -310 325&#xA;-791 327 -1240 5 -797 -392 -1571 -1077 -2104 -355 -276 -732 -469 -1170 -600&#xA;-94 -28 -130 -36 -315 -76 -485 -105 -1242 -74 -1710 70 -1095 337 -1903 1093&#xA;-2176 2035 -153 527 -140 1039 41 1575 163 484 559 1000 1020 1331 701 501&#xA;1567 722 2470 629z"></path>
<path d="M3450 6095 l0 -186 38 3 37 3 0 113 c0 70 4 111 10 109 6 -2 37 -44&#xA;71 -93 80 -119 88 -119 168 3 34 51 64 92 68 93 4 0 9 -53 10 -117 l3 -118 35&#xA;0 35 0 3 176 c3 191 0 202 -50 192 -22 -4 -44 -30 -104 -119 -42 -63 -81 -113&#xA;-85 -112 -5 2 -44 55 -87 118 -74 108 -81 115 -115 118 l-37 3 0 -186z"></path>
<path d="M2898 6203 c-25 -6 -24 -12 23 -130 45 -112 45 -126 2 -95 -74 52&#xA;-266 152 -290 152 -61 0 -62 3 40 -265 l34 -90 37 1 c49 2 49 2 20 75 -38 97&#xA;-56 149 -52 159 2 5 53 -20 113 -56 168 -98 188 -108 220 -105 46 3 49 14 21&#xA;78 -14 32 -45 108 -69 168 -45 112 -53 121 -99 108z"></path>
<path d="M4290 6187 c-9 -7 -40 -39 -70 -73 -206 -228 -204 -225 -155 -235 26&#xA;-5 35 -1 65 32 39 43 33 43 187 3 60 -16 62 -18 68 -55 8 -44 18 -54 63 -64&#xA;41 -8 41 -19 -13 200 -29 119 -50 184 -62 192 -21 16 -63 16 -83 0z m56 -123&#xA;c13 -58 17 -114 10 -114 -2 0 -23 7 -46 15 -23 8 -53 15 -66 15 -12 0 -25 4&#xA;-28 8 -7 11 96 142 108 139 5 -2 15 -30 22 -63z"></path>
<path d="M4725 6043 c-10 -21 -28 -54 -40 -73 -12 -19 -41 -73 -65 -119 -41&#xA;-80 -42 -85 -25 -97 37 -27 50 -16 105 91 51 97 80 129 80 88 0 -10 17 -78 38&#xA;-152 36 -126 41 -136 70 -150 40 -18 33 -27 126 151 80 155 86 172 60 182 -41&#xA;16 -51 6 -105 -99 -30 -58 -56 -105 -59 -105 -3 0 -25 66 -49 148 -24 81 -51&#xA;153 -60 160 -29 24 -58 14 -76 -25z"></path>
<path d="M2180 5957 c-29 -15 -29 -1 1 -242 11 -93 24 -173 27 -177 4 -4 21 1&#xA;37 11 27 16 30 23 30 67 l0 49 85 42 c101 50 99 50 151 16 39 -26 40 -26 76&#xA;-9 43 21 45 19 -83 98 -278 172 -275 170 -324 145z m138 -107 c39 -25 71 -48&#xA;72 -52 0 -8 -113 -68 -128 -68 -5 0 -13 28 -16 63 -4 34 -10 73 -13 86 -7 28&#xA;-6 28 85 -29z"></path>
<path d="M1871 5789 l-25 -20 18 -47 c10 -26 31 -81 46 -122 15 -41 33 -87 39&#xA;-102 13 -34 14 -34 -62 1 -268 125 -258 122 -294 92 -34 -29 -30 -33 70 -73&#xA;50 -20 145 -61 210 -89 115 -51 119 -52 145 -37 40 24 38 41 -21 199 -30 79&#xA;-60 161 -66 182 -14 42 -26 45 -60 16z"></path>
<path d="M5231 5774 c-52 -44 -45 -88 29 -170 64 -71 69 -83 43 -109 -35 -35&#xA;-137 15 -173 85 l-21 41 -29 -18 c-37 -22 -38 -19 12 -77 83 -97 209 -131 273&#xA;-75 54 48 39 110 -45 184 -12 11 -28 32 -36 47 -43 84 79 79 154 -6 28 -33 34&#xA;-35 57 -24 36 16 32 30 -24 80 -80 72 -183 90 -240 42z"></path>
<path d="M3195 5671 c8 -26 -5 -32 -105 -47 -105 -16 -151 -36 -175 -78 -29&#xA;-50 -67 -86 -118 -113 -55 -27 -56 -38 -3 -28 40 8 114 57 146 97 28 36 98 54&#xA;269 71 24 2 37 -27 96 -214 4 -12 -13 -30 -62 -65 -37 -26 -109 -79 -159 -116&#xA;-90 -66 -93 -68 -152 -68 -64 0 -117 -14 -108 -29 3 -4 49 -11 103 -14 165&#xA;-10 299 -56 484 -168 l117 -70 32 -87 c18 -48 43 -109 56 -137 38 -84 63 -153&#xA;57 -159 -3 -3 -18 1 -33 9 -38 20 -96 164 -74 181 12 10 11 14 -9 27 -13 9&#xA;-35 44 -51 86 -30 77 -46 90 -46 39 0 -176 -47 -614 -91 -839 l-29 -156 24&#xA;-149 c38 -229 77 -395 95 -402 44 -17 396 81 499 139 l52 29 11 -27 c6 -16 19&#xA;-49 29 -75 l18 -47 -32 -5 c-17 -3 -85 -10 -151 -16 -167 -16 -913 -100 -1288&#xA;-146 l-49 -6 16 29 15 30 128 7 c70 3 186 12 256 18 l129 12 23 45 c48 96 138&#xA;359 184 536 59 226 110 607 127 946 l6 136 -28 20 c-128 91 -397 182 -505 171&#xA;-33 -3 -34 -4 -37 -53 -18 -343 -107 -988 -182 -1315 -119 -522 -142 -586&#xA;-208 -592 -45 -4 -52 -31 -9 -36 16 -2 117 6 225 17 283 29 298 30 294 8 -2&#xA;-9 13 -57 33 -106 41 -104 42 -109 13 -115 -113 -23 -399 -42 -383 -27 17 17&#xA;188 79 238 86 54 8 59 28 9 33 -34 4 -189 -46 -258 -83 -43 -23 -180 -52 -191&#xA;-41 -11 11 5 18 52 23 54 7 63 16 30 33 -32 17 -96 5 -102 -20 -3 -10 -13 -20&#xA;-24 -23 -27 -7 -25 -45 3 -49 17 -2 25 -14 34 -50 6 -26 26 -77 43 -114 35&#xA;-76 37 -90 15 -115 -18 -20 -1 -119 20 -119 19 0 230 50 766 182 289 71 716&#xA;176 950 234 234 57 653 160 931 229 278 69 509 125 513 125 24 0 -86 -188&#xA;-172 -294 -80 -100 -204 -228 -292 -301 -68 -57 -275 -205 -286 -205 -3 0 -35&#xA;-17 -72 -38 -111 -62 -300 -140 -477 -196 -260 -82 -695 -118 -989 -82 -321&#xA;40 -582 116 -859 252 -85 41 -100 46 -122 36 -39 -18 -31 -27 70 -81 801 -421&#xA;1849 -369 2599 131 181 120 487 411 525 498 3 8 27 47 52 85 232 353 316 805&#xA;219 1170 -92 340 -225 577 -464 823 -479 493 -1274 769 -1999 693 -89 -10 -93&#xA;-11 -77 -41 11 -20 17 -22 64 -16 375 50 921 -35 1279 -198 43 -20 83 -36 88&#xA;-36 5 0 22 -8 37 -19 15 -10 87 -56 161 -102 256 -158 391 -284 587 -544 225&#xA;-299 336 -718 285 -1075 -23 -159 -102 -405 -134 -414 -6 -2 -100 -25 -208&#xA;-50 -108 -26 -206 -50 -218 -53 -20 -5 -19 0 17 75 30 60 80 130 208 283 318&#xA;382 323 389 272 389 -12 0 -96 43 -186 96 -90 52 -167 92 -170 89 -9 -9 13&#xA;-24 171 -116 72 -42 132 -80 134 -85 2 -5 -30 -22 -70 -38 -39 -16 -150 -62&#xA;-244 -103 -152 -64 -175 -71 -198 -61 -33 15 -32 26 9 80 86 112 148 273 161&#xA;414 11 128 -23 233 -137 426 -54 91 -81 179 -72 237 l7 46 -28 -25 c-61 -56&#xA;-80 -106 -80 -210 0 -106 26 -173 112 -287 86 -114 133 -252 118 -345 -9 -49&#xA;-25 -49 -25 0 -1 172 -111 340 -305 467 -103 68 -195 154 -195 184 0 11 16 31&#xA;39 48 98 70 113 161 47 293 -32 65 -36 81 -31 123 l6 47 -34 0 c-19 0 -48 -5&#xA;-66 -11 -26 -9 -35 -8 -50 5 -23 21 -30 20 -57 -5 -22 -21 -24 -21 -64 -5 -61&#xA;24 -75 21 -95 -24 -17 -38 -19 -40 -64 -37 -43 2 -46 0 -49 -25 -3 -21 -10&#xA;-28 -35 -33 -79 -15 -104 -48 -53 -69 39 -16 66 -51 105 -138 50 -112 143&#xA;-172 266 -172 l70 0 50 -60 c32 -38 93 -89 170 -142 111 -77 224 -178 212&#xA;-190 -2 -3 -40 19 -83 48 -89 60 -171 91 -370 137 -149 34 -215 58 -295 107&#xA;-73 44 -75 43 -42 -18 89 -162 242 -241 553 -283 179 -24 235 -48 289 -123 27&#xA;-39 27 -51 -1 -25 -75 69 -162 83 -217 37 -77 -64 5 -189 85 -130 28 22 7 51&#xA;-36 51 -39 0 -49 18 -24 46 22 25 67 24 121 -2 101 -49 128 -183 64 -313 -18&#xA;-36 -36 -66 -41 -66 -5 0 -42 28 -82 63 -78 68 -346 292 -408 342 -42 34 -87&#xA;71 -354 299 -104 89 -268 228 -365 311 -97 82 -236 200 -309 263 -74 63 -138&#xA;125 -143 140 -6 15 -31 73 -56 130 -25 57 -43 105 -41 108 3 2 68 -43 144&#xA;-101 474 -359 1159 -823 1182 -801 9 10 -11 25 -102 80 -110 65 -526 341 -666&#xA;441 -216 155 -561 418 -586 447 -27 33 -116 213 -127 261 -4 15 -14 27 -23 27&#xA;-11 0 -13 -6 -9 -19z m152 -406 c27 -48 28 -73 6 -97 -15 -17 -15 -18 11 -18&#xA;29 0 26 5 92 -153 20 -48 34 -90 32 -93 -3 -2 -38 18 -79 46 -41 27 -79 50&#xA;-85 50 -37 1 -45 140 -8 140 8 0 14 5 14 10 0 6 -7 10 -15 10 -12 0 -14 12&#xA;-10 63 l4 62 -12 -62 c-7 -34 -14 -64 -17 -67 -8 -8 -234 -55 -239 -50 -3 2 4&#xA;11 15 18 10 8 69 53 129 99 61 47 117 84 125 84 8 -1 25 -20 37 -42z m-71&#xA;-182 c-3 -25 -8 -48 -10 -50 -5 -6 -166 51 -166 59 0 5 130 34 169 37 11 1 12&#xA;-9 7 -46z m1389 -23 c-5 -8 -11 -8 -17 -2 -6 6 -7 16 -3 22 5 8 11 8 17 2 6&#xA;-6 7 -16 3 -22z m154 -128 c38 -76 45 -122 27 -166 -19 -46 -26 -46 -19 -1 7&#xA;42 -11 111 -38 145 -18 24 -18 23 1 -34 24 -71 25 -106 5 -132 -15 -18 -16&#xA;-18 -14 6 3 49 -2 75 -16 94 -21 28 -28 14 -10 -20 19 -36 19 -65 0 -109 -29&#xA;-72 -59 -55 -96 53 -44 131 -16 233 82 300 l34 23 7 -50 c5 -28 21 -77 37&#xA;-109z m-238 122 c45 -23 51 -37 33 -80 l-16 -38 -19 25 c-10 13 -19 27 -19 32&#xA;0 4 -5 7 -10 7 -6 0 -4 -14 5 -31 22 -41 15 -45 -35 -19 -41 21 -42 23 -37 61&#xA;9 70 29 78 98 43z m-855 -286 c259 -411 431 -779 540 -1157 53 -185 54 -201 8&#xA;-340 -8 -25 -25 3 -45 75 -10 37 -27 77 -38 88 -11 12 -29 46 -41 76 -21 55&#xA;-76 185 -235 560 -46 107 -127 299 -180 425 -54 127 -124 292 -156 368 -33 75&#xA;-59 140 -59 143 0 3 26 -17 58 -44 42 -37 82 -89 148 -194z m704 227 c0 -9 -6&#xA;-12 -15 -9 -8 4 -15 10 -15 15 0 5 7 9 15 9 8 0 15 -7 15 -15z m67 -80 c85&#xA;-42 104 -63 137 -144 14 -36 33 -73 43 -83 13 -14 13 -18 2 -18 -33 1 -98 40&#xA;-132 80 -20 24 -37 39 -37 34 0 -19 63 -85 98 -104 44 -23 26 -26 -26 -4 -48&#xA;20 -97 67 -129 127 -35 62 -42 53 -11 -15 23 -49 53 -86 103 -122 35 -26 -3&#xA;-17 -44 10 -44 28 -79 77 -115 156 -13 29 -35 64 -50 77 -38 35 -33 41 33 41&#xA;47 0 72 -7 128 -35z m656 -417 c35 -79 41 -73 11 14 -13 39 -24 85 -24 102 0&#xA;30 1 29 28 -19 15 -27 40 -68 55 -90 15 -22 27 -43 27 -48 0 -5 12 -24 26 -43&#xA;15 -19 24 -40 20 -50 -3 -8 -2 -23 3 -32 12 -24 21 -92 12 -92 -11 0 -31 46&#xA;-31 70 0 11 -4 20 -10 20 -13 0 -14 1 16 -86 28 -85 26 -107 -5 -46 -11 21&#xA;-48 80 -81 131 -92 137 -131 272 -99 346 12 29 13 27 20 -45 4 -46 17 -97 32&#xA;-132z m-1466 -80 c12 -16 91 -206 139 -338 20 -52 39 -102 43 -110 9 -18 99&#xA;-236 170 -412 62 -155 63 -161 16 -140 -31 14 -40 28 -83 131 -53 126 -55 135&#xA;-15 120 35 -13 13 15 -26 34 -20 9 -35 36 -68 117 -46 114 -51 140 -28 140 8&#xA;0 15 5 15 10 0 6 -8 10 -19 10 -26 0 -36 15 -76 118 -41 106 -40 102 -18 102&#xA;13 0 9 7 -14 28 -22 19 -40 53 -62 115 l-31 87 24 0 c13 0 28 -6 33 -12z m898&#xA;-24 c44 -12 114 -30 155 -39 83 -19 220 -72 220 -85 0 -5 -24 -1 -53 9 -29 10&#xA;-75 21 -103 23 -27 3 -39 3 -26 1 12 -2 22 -8 22 -13 0 -5 8 -10 18 -13 15 -4&#xA;15 -5 -2 -12 -13 -6 -21 -5 -24 3 -2 7 -15 9 -33 5 -51 -10 -192 42 -271 100&#xA;-42 31 -34 42 10 12 36 -25 161 -70 169 -61 2 2 -13 10 -34 16 -53 18 -150 67&#xA;-159 81 -5 9 -2 10 12 4 10 -4 55 -18 99 -31z m310 -134 c-3 -5 -13 -10 -21&#xA;-10 -8 0 -14 5 -14 10 0 6 9 10 21 10 11 0 17 -4 14 -10z m80 -21 c7 -7 0 -8&#xA;-20 -3 -16 3 -34 11 -40 17 -7 6 0 7 20 3 17 -4 35 -12 40 -17z m-377 -172 c5&#xA;-24 -15 -21 -21 4 -3 13 -1 19 6 16 7 -2 13 -11 15 -20z m-913 -117 c-3 -5&#xA;-14 -10 -23 -10 -15 0 -15 2 -2 10 20 13 33 13 25 0z m-95 -75 c-7 -9 -15 -13&#xA;-17 -11 -7 7 7 26 19 26 6 0 6 -6 -2 -15z m2130 -124 c0 -6 -4 -13 -10 -16 -5&#xA;-3 -85 -98 -176 -210 -152 -186 -200 -236 -179 -187 5 9 10 74 13 144 l4 127&#xA;52 21 c28 13 96 44 151 70 137 64 145 67 145 51z m-600 -100 c0 -16 -118 -118&#xA;-179 -156 -53 -31 -76 -55 -55 -55 22 0 170 89 216 130 58 52 73 59 81 38 13&#xA;-39 -170 -158 -370 -242 -59 -25 -63 -25 -100 -10 -46 20 -66 15 -267 -55 -75&#xA;-27 -138 -46 -140 -42 -5 8 33 133 43 144 5 4 53 14 107 22 219 31 470 119&#xA;609 214 32 22 55 27 55 12z m200 -80 c0 -10 -42 -23 -49 -15 -7 6 20 24 37 24&#xA;6 0 12 -4 12 -9z m-10 -50 c17 26 19 2 9 -87 -15 -135 -59 -255 -125 -341 -36&#xA;-48 -51 -40 -20 10 43 68 77 147 97 222 25 94 24 121 -6 151 -40 40 -31 75 12&#xA;47 21 -14 26 -14 33 -2z m-110 0 c0 -4 -28 -28 -62 -51 -35 -24 -65 -45 -67&#xA;-46 -2 -2 2 -11 9 -19 20 -24 -21 -65 -44 -45 -14 10 -16 9 -16 -8 0 -14 -10&#xA;-24 -31 -31 -45 -15 -51 -14 -37 9 23 36 1 32 -124 -23 -67 -30 -183 -77 -256&#xA;-103 l-133 -49 26 -22 c24 -21 24 -23 6 -23 -11 0 -24 -7 -28 -15 -10 -16&#xA;-113 -31 -113 -16 0 14 78 31 83 17 2 -6 4 3 4 21 l0 32 -35 -15 c-43 -18 -62&#xA;-18 -62 -1 0 8 19 19 43 26 241 72 694 272 802 355 23 17 35 20 35 7z m53 -87&#xA;c-18 -47 -163 -147 -338 -234 -236 -118 -782 -304 -665 -227 14 9 95 39 180&#xA;68 381 126 667 267 779 383 34 35 56 40 44 10z m-1164 -59 c45 -23 66 -99 31&#xA;-108 -21 -5 -31 7 -63 86 -17 41 -11 45 32 22z m1139 -42 c-57 -62 -213 -159&#xA;-363 -225 -180 -80 -708 -258 -723 -243 -3 2 1 7 9 9 8 3 117 40 243 81 429&#xA;143 690 269 811 395 45 46 67 30 23 -17z m-538 -11 c0 -4 -60 -27 -132 -51&#xA;-73 -25 -149 -53 -169 -63 -45 -22 -61 -23 -57 -2 6 31 358 145 358 116z m530&#xA;-46 c0 -18 -19 -40 -58 -69 -43 -30 -83 -54 -222 -129 -67 -37 -307 -129 -348&#xA;-134 -24 -3 3 11 73 39 225 89 391 175 485 251 51 41 70 53 70 42z m-1050 -56&#xA;c0 -19 -17 -30 -37 -23 -19 7 -16 30 4 42 22 12 33 5 33 -19z m-72 -21 c2 -10&#xA;-6 -18 -20 -22 -13 -2 -122 -28 -243 -56 -121 -28 -260 -60 -310 -71 -175 -40&#xA;-167 -35 -206 -99 l-36 -58 -92 -18 c-50 -10 -95 -15 -98 -11 -4 4 -12 48 -18&#xA;99 -9 81 -13 93 -32 102 -54 23 -37 28 202 55 99 11 272 31 385 45 495 61 463&#xA;58 468 34z m1032 -70 c-47 -41 -190 -119 -219 -119 -9 0 11 14 44 31 33 18 94&#xA;55 135 84 86 60 107 62 40 4z m-876 20 c65 -51 7 -137 -178 -262 -159 -107&#xA;-269 -145 -357 -126 -134 30 -201 167 -118 243 32 30 57 38 266 89 127 32 242&#xA;61 254 66 43 17 104 13 133 -10z m-1202 -164 c14 -64 4 -74 -20 -21 -26 58&#xA;-27 68 -5 64 11 -2 20 -18 25 -43z m513 25 c-5 -9 -67 -29 -138 -44 -17 -4&#xA;-31 -16 -37 -31 -8 -21 -40 -37 -40 -20 0 28 35 65 68 74 98 24 118 29 135 30&#xA;10 1 15 -3 12 -9z m-85 -60 c0 -12 -28 -25 -36 -17 -9 9 6 27 22 27 8 0 14 -5&#xA;14 -10z m48 -57 c-3 -18 -195 -63 -448 -103 -144 -24 -424 -38 -400 -21 8 6&#xA;33 11 55 11 114 0 567 72 722 114 67 19 75 18 71 -1z m-932 -125 c32 -62 122&#xA;-175 178 -223 53 -47 67 -65 47 -65 -37 0 -174 145 -233 248 -19 32 -36 51&#xA;-44 48 -32 -12 -84 -18 -84 -9 0 8 30 17 112 32 4 0 15 -14 24 -31z m998 13&#xA;c13 -21 -366 -85 -604 -102 -162 -11 -272 -6 -289 14 -7 9 31 12 162 13 95 0&#xA;213 6 262 13 109 15 376 60 390 66 20 7 74 5 79 -4z m-1040 -40 c6 -8 -25 -21&#xA;-51 -21 -19 0 -15 18 5 23 29 8 41 7 46 -2z m1101 -10 c-10 -9 -213 -50 -375&#xA;-76 -223 -35 -515 -40 -540 -10 -8 9 22 11 132 7 193 -6 484 25 704 77 53 12&#xA;90 13 79 2z m-1075 -50 c0 -5 -9 -13 -20 -16 -41 -13 -15 -50 29 -40 41 9 40&#xA;-10 -1 -24 -36 -13 -48 -3 -75 61 l-12 28 39 0 c22 0 40 -4 40 -9z m643 -83&#xA;c-92 -25 -422 -27 -430 -3 -2 6 78 10 227 10 126 0 218 -3 203 -7z m-187 -49&#xA;c10 -16 -173 -15 -190 1 -5 5 35 8 88 8 53 0 99 -4 102 -9z"></path>
<path d="M4700 4310 c19 -13 30 -13 30 0 0 6 -10 10 -22 10 -19 0 -20 -2 -8&#xA;-10z"></path>
<path d="M5036 3401 c-7 -10 22 -37 30 -28 9 8 -3 37 -15 37 -5 0 -12 -4 -15&#xA;-9z"></path>
<path d="M4976 3355 c4 -8 11 -15 16 -15 6 0 5 6 -2 15 -7 8 -14 15 -16 15 -2&#xA;0 -1 -7 2 -15z"></path>
<path d="M4095 3124 c-27 -8 -120 -31 -205 -50 -184 -43 -255 -68 -275 -97&#xA;-57 -82 65 -210 183 -192 94 14 265 113 382 222 111 102 68 161 -85 117z m110&#xA;-14 c9 -15 -14 -40 -36 -40 -27 0 -35 21 -14 37 22 16 41 17 50 3z m-107 -34&#xA;c6 -27 27 -46 52 -46 27 0 21 -10 -29 -44 l-39 -27 -40 20 c-61 31 -77 59 -51&#xA;87 35 37 101 43 107 10z m-145 -18 c-27 -13 -29 -26 -8 -34 12 -5 13 -9 4 -20&#xA;-9 -12 -9 -13 4 -8 13 5 62 -18 77 -37 3 -3 12 -8 20 -11 10 -3 1 -13 -28 -33&#xA;-38 -25 -45 -26 -72 -15 -16 7 -30 18 -30 24 0 8 -12 11 -35 8 -43 -5 -45 3&#xA;-4 23 58 30 20 27 -43 -3 -58 -28 -61 -30 -31 -31 17 -1 35 -5 38 -11 3 -5 17&#xA;-10 30 -10 13 0 36 -5 52 -11 27 -10 28 -11 8 -25 -11 -9 -32 -18 -47 -21 -16&#xA;-3 -28 -9 -28 -14 0 -12 -71 -29 -97 -23 -26 7 -29 14 -12 31 8 8 1 10 -28 6&#xA;-68 -9 -75 19 -12 46 29 12 50 23 47 26 -3 3 -21 -2 -41 -10 -54 -22 -79 -20&#xA;-75 8 2 16 15 26 53 39 l50 18 -52 -6 c-67 -8 -67 1 1 32 86 39 336 99 259 62z"></path>
<path d="M3790 2990 c-18 -12 -2 -12 25 0 13 6 15 9 5 9 -8 0 -22 -4 -30 -9z"></path>
<path d="M5575 5420 c-95 -190 -94 -188 -61 -219 l24 -23 209 68 c114 37 210&#xA;68 212 70 9 8 -33 44 -50 44 -11 0 -63 -14 -116 -30 -54 -17 -120 -38 -147&#xA;-46 -26 -8 -50 -13 -53 -10 -3 3 26 63 63 135 l68 130 -24 26 c-13 14 -27 25&#xA;-32 25 -4 0 -46 -76 -93 -170z"></path>
<path d="M2534 5391 c-478 -232 -871 -659 -1013 -1101 -114 -356 -106 -740 23&#xA;-1069 116 -294 370 -608 652 -809 111 -78 134 -89 151 -66 20 27 20 26 -90&#xA;105 -465 331 -714 764 -751 1304 -17 253 91 629 255 885 175 271 499 556 794&#xA;695 107 51 110 53 89 76 -22 24 -17 25 -110 -20z"></path>
<path d="M1203 5193 c-77 -98 -108 -142 -102 -147 6 -6 133 -82 149 -90 8 -4&#xA;24 -12 35 -19 89 -55 165 -97 174 -97 5 0 20 15 33 33 12 17 51 67 85 110 68&#xA;84 72 93 46 113 -27 20 -28 20 -91 -64 -82 -107 -79 -105 -129 -75 -53 31 -53&#xA;30 7 109 56 73 58 79 31 94 -31 16 -33 14 -89 -60 -29 -38 -56 -70 -62 -70 -7&#xA;0 -73 34 -89 47 -3 2 5 13 16 26 12 12 42 49 67 82 45 60 45 60 25 78 -31 25&#xA;-31 25 -106 -70z"></path>
<path d="M5890 5109 c-197 -109 -189 -101 -157 -133 14 -14 27 -29 28 -34 7&#xA;-16 124 -171 130 -171 4 -1 17 7 29 17 l21 17 -37 50 c-20 28 -51 64 -67 82&#xA;-24 25 -28 35 -19 46 19 22 93 52 100 41 29 -43 105 -134 112 -134 53 0 50 27&#xA;-10 102 -27 34 -50 66 -50 70 0 14 81 62 89 52 4 -5 34 -42 66 -81 55 -70 75&#xA;-82 104 -64 10 6 10 13 3 27 -17 30 -156 197 -167 201 -5 1 -84 -38 -175 -88z"></path>
<path d="M951 4833 c-7 -14 -8 -29 -4 -33 6 -6 146 -55 243 -87 27 -8 -10 -20&#xA;-176 -57 -122 -28 -163 -41 -176 -57 -27 -32 -22 -46 25 -63 23 -8 112 -40&#xA;197 -70 178 -64 183 -65 199 -30 16 36 17 35 -128 84 -72 24 -131 46 -131 50&#xA;0 3 81 26 181 50 166 40 182 46 195 71 12 24 12 28 -4 34 -31 12 -286 102&#xA;-336 119 -65 21 -71 21 -85 -11z"></path>
<path d="M6135 4763 c-104 -37 -192 -68 -194 -70 -3 -2 19 -53 49 -113 43 -87&#xA;59 -110 75 -110 48 1 49 14 11 90 -20 40 -36 77 -36 81 0 11 35 26 193 79 129&#xA;45 138 51 117 91 -13 24 7 29 -215 -48z"></path>
<path d="M6427 4548 c-15 -12 -15 -16 3 -57 27 -58 27 -57 -32 -71 -103 -22&#xA;-283 -62 -295 -66 -11 -3 1 -64 12 -64 4 0 191 40 240 51 106 25 123 24 131&#xA;-7 14 -60 31 -82 59 -76 37 7 37 9 -4 123 -69 189 -74 196 -114 167z"></path>
<path d="M747 4343 c-20 -36 -16 -62 11 -67 32 -7 231 -36 250 -36 26 0 10&#xA;-16 -36 -34 -26 -11 -102 -46 -169 -77 -116 -55 -123 -60 -123 -87 l0 -29 138&#xA;-22 c322 -50 322 -50 322 -2 0 33 7 31 -145 51 -149 20 -162 27 -102 50 37 15&#xA;229 103 267 123 18 9 25 21 25 42 l0 30 -185 27 c-102 15 -199 29 -217 33 -17&#xA;3 -33 2 -36 -2z"></path>
<path d="M6382 4018 c-32 -32 0 -78 54 -78 46 0 67 39 39 70 -20 22 -74 27&#xA;-93 8z"></path>
<path d="M1065 3855 c-29 -14 -123 -53 -312 -130 l-93 -38 0 -37 c0 -43 -9&#xA;-38 170 -96 63 -20 154 -49 202 -65 107 -36 100 -36 96 8 -3 32 -8 39 -33 47&#xA;-79 23 -75 16 -75 120 l0 94 50 17 c49 16 50 18 50 56 0 43 -7 46 -55 24z&#xA;m-115 -201 c0 -58 -2 -66 -17 -61 -80 22 -173 53 -173 58 0 8 150 68 173 68&#xA;14 1 17 -9 17 -65z"></path>
<path d="M6335 3665 c-5 -49 -4 -80 3 -87 15 -15 32 0 32 29 l0 25 106 -7&#xA;c100 -7 106 -6 102 11 -3 16 -17 20 -93 27 -113 9 -116 11 -113 44 2 19 -2 28&#xA;-14 31 -13 3 -17 -10 -23 -73z"></path>
<path d="M3306 3683 c-27 -111 -145 -439 -169 -471 -5 -7 -8 -15 -5 -17 7 -7&#xA;271 26 281 35 5 4 -3 54 -17 111 -14 57 -36 164 -48 237 -23 134 -31 153 -42&#xA;105z"></path>
<path d="M6327 3533 c-3 -5 -8 -36 -12 -69 l-7 -61 84 -12 c45 -7 100 -15 121&#xA;-18 33 -5 37 -3 37 16 0 15 -6 21 -22 21 -60 0 -71 10 -64 56 5 38 3 44 -13&#xA;44 -14 0 -20 -10 -25 -40 -5 -30 -11 -40 -25 -40 -45 0 -52 10 -45 61 5 41 4&#xA;49 -9 49 -9 0 -18 -3 -20 -7z"></path>
<path d="M6390 3295 c-63 -7 -116 -13 -116 -14 -22 -15 -2 -38 82 -96 53 -37&#xA;102 -69 110 -72 23 -9 17 35 -7 48 -18 9 -20 16 -14 47 9 48 21 62 56 62 22 0&#xA;29 5 29 20 0 11 -6 19 -12 19 -7 -1 -65 -8 -128 -14z m25 -62 c-9 -38 -9 -38&#xA;-50 -13 -43 26 -37 40 17 40 39 0 40 -1 33 -27z"></path>
<path d="M930 3170 c-25 -25 -26 -52 -2 -73 38 -35 102 -12 102 37 0 50 -63&#xA;73 -100 36z"></path>
<path d="M6230 3106 c-29 -16 -74 -91 -67 -110 3 -7 23 -18 46 -24 22 -7 71&#xA;-26 108 -43 51 -23 68 -27 75 -17 13 22 9 29 -23 40 -49 17 -36 49 26 63 68&#xA;14 70 41 3 36 -36 -2 -48 1 -48 12 0 39 -77 67 -120 43z m72 -43 c21 -19 23&#xA;-42 5 -67 -11 -15 -16 -16 -47 -2 -47 19 -51 25 -38 50 21 39 50 47 80 19z"></path>
<path d="M6107 2904 c-36 -36 -43 -77 -20 -116 65 -110 248 -76 231 43 -4 34&#xA;-33 31 -33 -3 -2 -90 -144 -90 -170 0 -5 17 1 29 24 51 17 16 31 34 31 40 0&#xA;20 -37 11 -63 -15z"></path>
<path d="M1080 2829 c-58 -26 -109 -50 -115 -52 -6 -3 -3 -12 6 -21 14 -15 19&#xA;-15 63 1 47 17 49 17 60 -1 47 -81 100 -87 55 -7 -25 45 -21 55 23 66 23 6 29&#xA;2 53 -39 26 -44 65 -64 65 -33 -1 20 -80 137 -93 136 -6 -1 -59 -23 -117 -50z"></path>
<path d="M5985 2711 c-29 -12 -107 -100 -100 -111 4 -6 47 -38 96 -71 101 -67&#xA;98 -67 151 5 15 21 28 50 28 63 0 77 -102 143 -175 114z m85 -46 c54 -28 62&#xA;-82 19 -121 -23 -21 -56 -8 -121 46 l-33 28 20 22 c36 40 71 48 115 25z"></path>
<path d="M1210 2600 c-58 -33 -103 -63 -102 -67 16 -36 19 -35 136 28 77 43&#xA;115 69 113 79 -5 29 -43 19 -147 -40z"></path>
<path d="M1313 2477 c-98 -69 -120 -97 -81 -105 10 -2 44 16 77 39 34 24 63&#xA;40 67 37 3 -3 -7 -47 -22 -98 -24 -81 -26 -93 -12 -106 13 -13 27 -6 121 61&#xA;59 41 107 82 107 91 0 39 -43 20 -159 -70 -16 -13 -16 -10 19 117 16 61 18 82&#xA;9 93 -16 19 -12 21 -126 -59z"></path>
<path d="M5765 2492 c-72 -44 -81 -114 -22 -168 106 -98 267 1 202 125 -28 56&#xA;-122 78 -180 43z m122 -40 c54 -41 32 -117 -38 -128 -73 -12 -129 76 -79 126&#xA;25 25 86 26 117 2z"></path>
<path d="M1550 2229 l-95 -91 26 -21 c15 -12 47 -39 73 -61 27 -23 52 -36 61&#xA;-32 25 9 18 23 -35 68 l-49 42 21 23 c28 29 27 30 77 -13 38 -33 44 -35 58&#xA;-22 13 14 10 19 -32 53 l-46 38 25 26 25 25 51 -43 c48 -40 88 -50 78 -18 -5&#xA;14 -125 117 -136 117 -4 -1 -50 -42 -102 -91z"></path>
<path d="M5533 2306 c-18 -8 -42 -30 -53 -48 -71 -114 100 -229 205 -137 101&#xA;89 -24 242 -152 185z m118 -55 c35 -35 37 -66 7 -98 -47 -51 -148 -16 -148 52&#xA;0 71 87 99 141 46z"></path>
<path d="M5352 2187 c-9 -11 -6 -31 13 -88 14 -40 24 -77 22 -82 -1 -4 -35 17&#xA;-74 48 -63 49 -75 55 -93 45 -15 -8 -19 -17 -15 -28 25 -61 53 -152 46 -152&#xA;-4 0 -38 25 -76 55 -77 61 -78 61 -94 41 -10 -12 1 -24 61 -68 137 -101 133&#xA;-99 153 -84 16 12 16 17 -9 90 -15 43 -25 80 -22 83 2 3 36 -20 75 -51 63 -50&#xA;73 -55 91 -44 24 16 26 2 -14 133 -34 111 -44 126 -64 102z"></path>
<path d="M1922 1969 c-79 -110 -79 -111 -56 -130 17 -14 26 -7 64 50 l16 23&#xA;53 -27 c35 -17 57 -23 63 -17 15 15 2 29 -43 52 -44 23 -47 34 -20 70 l19 24&#xA;52 -32 c58 -36 63 -37 79 -18 10 12 0 21 -53 51 -36 20 -68 41 -72 46 -13 21&#xA;-33 3 -102 -92z"></path>
<path d="M2185 1874 c-46 -82 -55 -136 -29 -166 43 -48 133 -62 177 -28 29 23&#xA;110 167 101 181 -15 25 -41 5 -73 -53 -60 -112 -97 -133 -146 -83 -32 31 -32&#xA;36 15 124 40 77 42 91 10 91 -12 0 -30 -22 -55 -66z"></path>
<path d="M4775 1912 c-53 -11 -73 -72 -35 -107 15 -13 17 -22 10 -36 -44 -81&#xA;65 -136 141 -72 22 19 41 27 61 24 36 -3 38 21 3 37 -17 8 -25 20 -25 37 0 31&#xA;-25 34 -33 4 -4 -16 -10 -19 -29 -14 -37 11 -42 21 -29 54 21 49 -10 84 -64&#xA;73z m30 -42 c8 -13 -3 -50 -15 -50 -16 0 -39 31 -34 45 7 17 40 20 49 5z m72&#xA;-134 c-7 -22 -56 -42 -74 -30 -22 14 -28 41 -13 59 13 16 93 -10 87 -29z"></path>
<path d="M2530 1817 c0 -2 -18 -52 -40 -113 -47 -129 -46 -124 -16 -124 17 0&#xA;27 9 36 30 21 51 72 33 92 -31 7 -25 20 -44 32 -49 33 -12 37 -2 19 42 -13 32&#xA;-14 43 -4 46 62 21 94 108 53 145 -29 26 -172 71 -172 54z m99 -63 c47 -19 57&#xA;-38 36 -70 -27 -42 -132 -24 -119 20 23 74 23 74 83 50z"></path>
<path d="M5570 1799 c-18 -33 12 -71 53 -67 38 4 60 46 37 72 -19 24 -77 21&#xA;-90 -5z"></path>
<path d="M4348 1781 c-43 -10 -80 -20 -84 -23 -4 -4 61 -223 70 -234 0 -1 41&#xA;8 91 20 69 17 91 26 93 41 4 16 0 17 -34 11 -100 -19 -124 -19 -124 -3 0 8 -2&#xA;22 -5 29 -4 11 9 18 50 27 51 12 77 32 61 48 -3 3 -32 -2 -63 -11 -55 -15 -59&#xA;-15 -71 1 -23 31 -10 46 56 61 48 12 62 19 62 34 0 21 -2 21 -102 -1z"></path>
<path d="M2810 1623 c-27 -135 -27 -127 0 -131 23 -4 34 18 44 90 4 26 11 50&#xA;15 52 4 3 31 -36 61 -85 72 -123 86 -121 117 16 29 132 29 147 1 143 -19 -2&#xA;-25 -14 -38 -70 -8 -37 -18 -70 -22 -73 -3 -4 -30 34 -60 84 -76 130 -88 127&#xA;-118 -26z"></path>
<path d="M3985 1711 c-36 -8 -36 -13 -8 -151 17 -80 23 -95 39 -95 14 0 19 7&#xA;20 30 1 64 50 76 99 25 25 -27 75 -42 75 -23 0 4 -15 22 -32 40 -21 22 -29 36&#xA;-22 41 38 25 39 79 1 120 -21 23 -99 29 -172 13z m147 -56 c15 -33 -3 -53 -58&#xA;-65 -47 -11 -54 -5 -61 49 l-6 41 57 0 c51 0 58 -3 68 -25z"></path>
<path d="M5201 1684 c-87 -73 19 -162 112 -94 l27 21 0 -29 c0 -31 -21 -55&#xA;-57 -66 -13 -4 -23 -14 -23 -23 0 -27 70 -9 103 27 88 98 -61 249 -162 164z&#xA;m90 -14 c26 -14 24 -36 -6 -56 -46 -30 -92 9 -55 46 23 23 33 24 61 10z"></path>
<path d="M3186 1682 c-2 -4 -10 -55 -16 -112 -7 -58 -13 -109 -14 -115 0 -5&#xA;10 -10 24 -10 24 0 25 4 37 90 17 136 17 155 -6 155 -11 0 -22 -3 -25 -8z"></path>
<path d="M3804 1610 c9 -96 4 -114 -32 -129 -62 -26 -102 14 -102 101 0 78 -8&#xA;98 -37 98 l-24 0 6 -82 c12 -135 64 -185 163 -158 71 19 87 55 77 171 -7 76&#xA;-8 79 -32 79 l-26 0 7 -80z"></path>
<path d="M3312 1663 c2 -13 14 -19 46 -21 l44 -3 -3 -102 c-3 -97 -2 -102 18&#xA;-105 20 -3 22 3 28 85 3 48 7 95 8 103 2 10 16 16 45 18 34 3 43 7 40 20 -3&#xA;15 -19 17 -116 20 -104 2 -113 1 -110 -15z"></path>
<path d="M4967 1572 c-33 -34 -36 -83 -7 -129 58 -96 190 -72 190 35 0 98&#xA;-120 160 -183 94z m111 -35 c45 -47 36 -117 -14 -117 -23 0 -72 50 -79 81 -13&#xA;58 50 82 93 36z"></path>
<path d="M4728 1494 c-49 -26 -61 -78 -33 -138 47 -99 198 -83 198 21 0 95&#xA;-89 159 -165 117z m91 -48 c36 -38 39 -90 7 -111 -34 -22 -70 -2 -92 52 -29&#xA;67 35 112 85 59z"></path>
<path d="M4475 1420 c-32 -12 -50 -39 -37 -52 9 -9 16 -8 29 4 25 22 45 27 66&#xA;16 26 -13 21 -45 -18 -104 -36 -54 -44 -84 -22 -84 36 0 157 35 157 46 0 21&#xA;-14 24 -54 13 -54 -15 -59 -9 -31 33 65 95 12 170 -90 128z"></path>
<path d="M3983 1328 c-74 -11 -90 -38 -23 -38 44 0 41 6 59 -109 12 -72 14&#xA;-76 36 -68 18 8 18 21 1 112 -15 77 -12 85 37 85 17 0 27 5 27 15 0 17 -38 18&#xA;-137 3z"></path>
<path d="M3740 1303 c-30 -11 -50 -37 -50 -63 0 -34 18 -49 67 -57 49 -7 73&#xA;-20 73 -38 0 -20 -35 -28 -85 -21 -24 4 -46 3 -49 -2 -17 -28 79 -49 133 -29&#xA;79 28 53 108 -39 123 -82 13 -77 54 6 54 39 0 54 4 54 14 0 20 -73 33 -110 19z"></path>
<path d="M3430 1190 l0 -110 90 0 c72 0 90 3 90 15 0 11 -16 15 -67 17 -66 3&#xA;-68 4 -71 31 -3 27 -3 27 53 27 48 0 56 3 53 18 -2 13 -15 18 -56 20 -48 3&#xA;-52 5 -52 28 0 13 6 24 13 25 6 0 37 1 67 2 41 2 55 6 55 17 0 12 -18 16 -87&#xA;18 l-88 3 0 -111z"></path>
<path d="M3086 1234 c-41 -40 11 -101 59 -70 30 20 33 61 6 76 -27 14 -47 13&#xA;-65 -6z"></path>
<path d="M4209 1174 c-9 -11 -9 -18 -1 -26 14 -14 42 -3 42 16 0 20 -27 27&#xA;-41 10z"></path>
</g>
</svg>